<svg width="265" height="41" viewBox="0 0 265 41" fill="none" xmlns="http://www.w3.org/2000/svg">
<circle cx="18.5" cy="18.5" r="18.5" fill="black"/>
<path d="M20.376 31.252C18.528 31.252 16.872 30.952 15.408 30.352C13.944 29.752 12.768 28.864 11.88 27.688C11.016 26.512 10.56 25.096 10.512 23.44H17.064C17.16 24.376 17.484 25.096 18.036 25.6C18.588 26.08 19.308 26.32 20.196 26.32C21.108 26.32 21.828 26.116 22.356 25.708C22.884 25.276 23.148 24.688 23.148 23.944C23.148 23.32 22.932 22.804 22.5 22.396C22.092 21.988 21.576 21.652 20.952 21.388C20.352 21.124 19.488 20.824 18.36 20.488C16.728 19.984 15.396 19.48 14.364 18.976C13.332 18.472 12.444 17.728 11.7 16.744C10.956 15.76 10.584 14.476 10.584 12.892C10.584 10.54 11.436 8.704 13.14 7.384C14.844 6.04 17.064 5.368 19.8 5.368C22.584 5.368 24.828 6.04 26.532 7.384C28.236 8.704 29.148 10.552 29.268 12.928H22.608C22.56 12.112 22.26 11.476 21.708 11.02C21.156 10.54 20.448 10.3 19.584 10.3C18.84 10.3 18.24 10.504 17.784 10.912C17.328 11.296 17.1 11.86 17.1 12.604C17.1 13.42 17.484 14.056 18.252 14.512C19.02 14.968 20.22 15.46 21.852 15.988C23.484 16.54 24.804 17.068 25.812 17.572C26.844 18.076 27.732 18.808 28.476 19.768C29.22 20.728 29.592 21.964 29.592 23.476C29.592 24.916 29.22 26.224 28.476 27.4C27.756 28.576 26.7 29.512 25.308 30.208C23.916 30.904 22.272 31.252 20.376 31.252Z" fill="white"/>
<path d="M42.5244 31.288C40.5564 31.288 38.7804 30.868 37.1964 30.028C35.6364 29.188 34.4004 27.988 33.4884 26.428C32.6004 24.868 32.1564 23.044 32.1564 20.956C32.1564 18.892 32.6124 17.08 33.5244 15.52C34.4364 13.936 35.6844 12.724 37.2684 11.884C38.8524 11.044 40.6284 10.624 42.5964 10.624C44.5644 10.624 46.3404 11.044 47.9244 11.884C49.5084 12.724 50.7564 13.936 51.6684 15.52C52.5804 17.08 53.0364 18.892 53.0364 20.956C53.0364 23.02 52.5684 24.844 51.6324 26.428C50.7204 27.988 49.4604 29.188 47.8524 30.028C46.2684 30.868 44.4924 31.288 42.5244 31.288ZM42.5244 25.96C43.7004 25.96 44.6964 25.528 45.5124 24.664C46.3524 23.8 46.7724 22.564 46.7724 20.956C46.7724 19.348 46.3644 18.112 45.5484 17.248C44.7564 16.384 43.7724 15.952 42.5964 15.952C41.3964 15.952 40.4004 16.384 39.6084 17.248C38.8164 18.088 38.4204 19.324 38.4204 20.956C38.4204 22.564 38.8044 23.8 39.5724 24.664C40.3644 25.528 41.3484 25.96 42.5244 25.96ZM55.0783 20.956C55.0783 18.868 55.4983 17.044 56.3383 15.484C57.2023 13.924 58.3903 12.724 59.9023 11.884C61.4383 11.044 63.1903 10.624 65.1583 10.624C67.6783 10.624 69.7783 11.284 71.4583 12.604C73.1623 13.924 74.2783 15.784 74.8063 18.184H68.2543C67.7023 16.648 66.6343 15.88 65.0503 15.88C63.9223 15.88 63.0223 16.324 62.3503 17.212C61.6783 18.076 61.3423 19.324 61.3423 20.956C61.3423 22.588 61.6783 23.848 62.3503 24.736C63.0223 25.6 63.9223 26.032 65.0503 26.032C66.6343 26.032 67.7023 25.264 68.2543 23.728H74.8063C74.2783 26.08 73.1623 27.928 71.4583 29.272C69.7543 30.616 67.6543 31.288 65.1583 31.288C63.1903 31.288 61.4383 30.868 59.9023 30.028C58.3903 29.188 57.2023 27.988 56.3383 26.428C55.4983 24.868 55.0783 23.044 55.0783 20.956ZM81.1952 8.824C80.1152 8.824 79.2272 8.512 78.5312 7.888C77.8592 7.24 77.5232 6.448 77.5232 5.512C77.5232 4.552 77.8592 3.76 78.5312 3.136C79.2272 2.488 80.1152 2.164 81.1952 2.164C82.2512 2.164 83.1152 2.488 83.7872 3.136C84.4832 3.76 84.8312 4.552 84.8312 5.512C84.8312 6.448 84.4832 7.24 83.7872 7.888C83.1152 8.512 82.2512 8.824 81.1952 8.824ZM84.2552 10.912V31H78.0992V10.912H84.2552ZM87.4924 20.92C87.4924 18.856 87.8764 17.044 88.6444 15.484C89.4364 13.924 90.5044 12.724 91.8484 11.884C93.1924 11.044 94.6924 10.624 96.3484 10.624C97.7644 10.624 99.0004 10.912 100.056 11.488C101.136 12.064 101.964 12.82 102.54 13.756V10.912H108.696V31H102.54V28.156C101.94 29.092 101.1 29.848 100.02 30.424C98.9644 31 97.7284 31.288 96.3124 31.288C94.6804 31.288 93.1924 30.868 91.8484 30.028C90.5044 29.164 89.4364 27.952 88.6444 26.392C87.8764 24.808 87.4924 22.984 87.4924 20.92ZM102.54 20.956C102.54 19.42 102.108 18.208 101.244 17.32C100.404 16.432 99.3724 15.988 98.1484 15.988C96.9244 15.988 95.8804 16.432 95.0164 17.32C94.1764 18.184 93.7564 19.384 93.7564 20.92C93.7564 22.456 94.1764 23.68 95.0164 24.592C95.8804 25.48 96.9244 25.924 98.1484 25.924C99.3724 25.924 100.404 25.48 101.244 24.592C102.108 23.704 102.54 22.492 102.54 20.956ZM119.306 4.36V31H113.15V4.36H119.306ZM139.499 26.536H130.067L128.555 31H122.111L131.255 5.728H138.383L147.527 31H141.011L139.499 26.536ZM137.915 21.784L134.783 12.532L131.687 21.784H137.915ZM156.466 4.36V31H150.31V4.36H156.466ZM159.703 20.956C159.703 18.868 160.123 17.044 160.963 15.484C161.827 13.924 163.015 12.724 164.527 11.884C166.063 11.044 167.815 10.624 169.783 10.624C172.303 10.624 174.403 11.284 176.083 12.604C177.787 13.924 178.903 15.784 179.431 18.184H172.879C172.327 16.648 171.259 15.88 169.675 15.88C168.547 15.88 167.647 16.324 166.975 17.212C166.303 18.076 165.967 19.324 165.967 20.956C165.967 22.588 166.303 23.848 166.975 24.736C167.647 25.6 168.547 26.032 169.675 26.032C171.259 26.032 172.327 25.264 172.879 23.728H179.431C178.903 26.08 177.787 27.928 176.083 29.272C174.379 30.616 172.279 31.288 169.783 31.288C167.815 31.288 166.063 30.868 164.527 30.028C163.015 29.188 161.827 27.988 160.963 26.428C160.123 24.868 159.703 23.044 159.703 20.956ZM201.66 20.632C201.66 21.208 201.624 21.808 201.552 22.432H187.62C187.716 23.68 188.112 24.64 188.808 25.312C189.528 25.96 190.404 26.284 191.436 26.284C192.972 26.284 194.04 25.636 194.64 24.34H201.192C200.856 25.66 200.244 26.848 199.356 27.904C198.492 28.96 197.4 29.788 196.08 30.388C194.76 30.988 193.284 31.288 191.652 31.288C189.684 31.288 187.932 30.868 186.396 30.028C184.86 29.188 183.66 27.988 182.796 26.428C181.932 24.868 181.5 23.044 181.5 20.956C181.5 18.868 181.92 17.044 182.76 15.484C183.624 13.924 184.824 12.724 186.36 11.884C187.896 11.044 189.66 10.624 191.652 10.624C193.596 10.624 195.324 11.032 196.836 11.848C198.348 12.664 199.524 13.828 200.364 15.34C201.228 16.852 201.66 18.616 201.66 20.632ZM195.36 19.012C195.36 17.956 195 17.116 194.28 16.492C193.56 15.868 192.66 15.556 191.58 15.556C190.548 15.556 189.672 15.856 188.952 16.456C188.256 17.056 187.824 17.908 187.656 19.012H195.36ZM213.08 31.288C211.328 31.288 209.768 30.988 208.4 30.388C207.032 29.788 205.952 28.972 205.16 27.94C204.368 26.884 203.924 25.708 203.828 24.412H209.912C209.984 25.108 210.308 25.672 210.884 26.104C211.46 26.536 212.168 26.752 213.008 26.752C213.776 26.752 214.364 26.608 214.772 26.32C215.204 26.008 215.42 25.612 215.42 25.132C215.42 24.556 215.12 24.136 214.52 23.872C213.92 23.584 212.948 23.272 211.604 22.936C210.164 22.6 208.964 22.252 208.004 21.892C207.044 21.508 206.216 20.92 205.52 20.128C204.824 19.312 204.476 18.22 204.476 16.852C204.476 15.7 204.788 14.656 205.412 13.72C206.06 12.76 206.996 12.004 208.22 11.452C209.468 10.9 210.944 10.624 212.648 10.624C215.168 10.624 217.148 11.248 218.588 12.496C220.052 13.744 220.892 15.4 221.108 17.464H215.42C215.324 16.768 215.012 16.216 214.484 15.808C213.98 15.4 213.308 15.196 212.468 15.196C211.748 15.196 211.196 15.34 210.812 15.628C210.428 15.892 210.236 16.264 210.236 16.744C210.236 17.32 210.536 17.752 211.136 18.04C211.76 18.328 212.72 18.616 214.016 18.904C215.504 19.288 216.716 19.672 217.652 20.056C218.588 20.416 219.404 21.016 220.1 21.856C220.82 22.672 221.192 23.776 221.216 25.168C221.216 26.344 220.88 27.4 220.208 28.336C219.56 29.248 218.612 29.968 217.364 30.496C216.14 31.024 214.712 31.288 213.08 31.288Z" fill="black"/>
</svg>
